# xmcd CD database file
#
# Track frame offsets:
#	150
#	23836
#	47892
#	73927
#	94069
#	123560
#	141920
#	169529
#	205738
#
# Disc length: 3555 seconds
#
# Revision: 1
# Processed by: cddbd v1.4PL0 Copyright (c) Steve Scherf et al.
# Submitted via: CDex 1.50beta10
#
DISCID=800de109
DTITLE=Christian Willisohn - Live at Marians - Disc 1
DYEAR=2000
DGENRE=Blues
TTITLE0=Bring It On Home
TTITLE1=Honky Tonk Train Blues
TTITLE2=Basin Street
TTITLE3=Black Fantasy
TTITLE4=Little Red Rooster
TTITLE5=Lestat's Lamento
TTITLE6=Life
TTITLE7=St. James Infirmary
TTITLE8=4 Meade
EXTD=YEAR: 2000
EXTT0=
EXTT1=
EXTT2=
EXTT3=
EXTT4=
EXTT5=
EXTT6=
EXTT7=
EXTT8=
PLAYORDER=
